<svg xmlns="http://www.w3.org/2000/svg"
 xmlns:xlink="http://www.w3.org/1999/xlink"
 width="10px" height="8px"  viewBox="0 0 10 8">
<path fill-rule="evenodd"  fill="#f0242c"
 d="M5.6708984,1.9794922 C5.6708984,1.9794922 8.66333,4.897949 8.66333,4.897949 C8.779907,5.005371 8.838501,5.1396484 8.838501,5.3012695 C8.838501,5.4624023 8.779907,5.5961914 8.66333,5.7036133 C8.66333,5.7036133 8.3186035,6.0439453 8.3186035,6.0439453 C8.2052,6.154297 8.067139,6.2094727 7.9053955,6.2094727 C7.7454834,6.2094727 7.606079,6.154297 7.4868164,6.0439453 C7.4868164,6.0439453 5.256836,3.8686523 5.256836,3.8686523 C5.256836,3.8686523 3.022461,6.0439453 3.022461,6.0439453 C2.9089355,6.154297 2.7711182,6.209961 2.6085205,6.209961 C2.449463,6.209961 2.3099365,6.154297 2.1903076,6.0439453 C2.1903076,6.0439453 1.845581,5.7036133 1.845581,5.7036133 C1.7319336,5.5932617 1.6760254,5.4589844 1.6760254,5.3012695 C1.6760254,5.1430664 1.7319336,5.008789 1.845581,4.8984375 C1.845581,4.8984375 4.838623,1.9794922 4.838623,1.9794922 C4.9578857,1.8691406 5.0977783,1.8139648 5.256836,1.8139648 C5.4195557,1.8139648 5.557251,1.8691406 5.6708984,1.9794922 Z"/>
</svg>